# xmcd CD database file
#
# Track frame offsets:
#	150
#	16646
#	31927
#	50794
#	70317
#	88569
#	103002
#	118277
#	128194
#	138257
#	149896
#	164536
#	179216
#	192919
#	219268
#	244652
#	260432
#	276494
#	288335
#	318357
#	331246
#	344517
#
# Disc length: 4744 seconds
#
# Revision: 0
# Processed by: cddbd v1.5.2PL0 Copyright (c) Steve Scherf et al.
# Submitted via: CDex 1.51
#
DISCID=60128616
DTITLE=Nina Simone - BD Jazz
DYEAR=2016
DGENRE=Jazz
TTITLE0=My baby just care for me
TTITLE1=Love me or leave me
TTITLE2=I loves your porgy
TTITLE3=Little girl blue
TTITLE4=Mood indigo
TTITLE5=He's got the whole world in his hands
TTITLE6=Blue prélude
TTITLE7=Stomping at the Savoy
TTITLE8=You've been gone too long
TTITLE9=Can't get out of this mood
TTITLE10=Willow weep for me
TTITLE11=Exactly like you
TTITLE12=The othe woman
TTITLE13=I don't want him
TTITLE14=Summertime
TTITLE15=Wild in the wind
TTITLE16=Fine and mellow
TTITLE17=Work song
TTITLE18=Just say I love him
TTITLE19=Do nothin till your hear from me
TTITLE20=Something to live for
TTITLE21=I don't mean a thing
EXTD=YEAR: 2016
EXTT0=
EXTT1=
EXTT2=
EXTT3=
EXTT4=
EXTT5=
EXTT6=
EXTT7=
EXTT8=
EXTT9=
EXTT10=
EXTT11=
EXTT12=
EXTT13=
EXTT14=
EXTT15=
EXTT16=
EXTT17=
EXTT18=
EXTT19=
EXTT20=
EXTT21=
PLAYORDER=
